<svg xmlns="http://www.w3.org/2000/svg" viewBox="0 0 64 64">
  <!-- Gear body: teeth outline as polygon, body circle, centre hole cutout -->
  <g fill="white">
    <!-- Teeth -->
    <polygon points="29.943,22.623 29.943,22.623 28.845,17.622 35.155,17.622 34.057,22.623 34.057,22.623 37.176,23.915 37.176,23.915 39.936,19.603 44.397,24.064 40.085,26.824 40.085,26.824 41.377,29.943 41.377,29.943 46.378,28.845 46.378,35.155 41.377,34.057 41.377,34.057 40.085,37.176 40.085,37.176 44.397,39.936 39.936,44.397 37.176,40.085 37.176,40.085 34.057,41.377 34.057,41.377 35.155,46.378 28.845,46.378 29.943,41.377 29.943,41.377 26.824,40.085 26.824,40.085 24.064,44.397 19.603,39.936 23.915,37.176 23.915,37.176 22.623,34.057 22.623,34.057 17.622,35.155 17.622,28.845 22.623,29.943 22.623,29.943 23.915,26.824 23.915,26.824 19.603,24.064 24.064,19.603 26.824,23.915 26.824,23.915"/>
    <!-- Body disc (covers inner tooth ends) -->
    <circle cx="32.000" cy="32.000" r="8.800"/>
  </g>
  <!-- Centre hole -->
  <circle cx="32.000" cy="32.000" r="4.160" fill="black"/>
</svg>
