<?xml version="1.0" encoding="UTF-8"?>
<svg version="1.1" xmlns="http://www.w3.org/2000/svg" width="70" height="70">
<circle cx="35" cy="35" r="33" fill="#1B1D1C"/>
<circle cx="35" cy="35" r="30" fill="none" stroke="#00AA3C" stroke-width="5"/>

<path d="M0 0 C8.91 0 17.82 0 27 0 C27 2.31 27 4.62 27 7 C20.4 7 13.8 7 7 7 C7 9.64 7 12.28 7 15 C13.6 15 20.2 15 27 15 C27 22.92 27 30.84 27 39 C18.09 39 9.18 39 0 39 C0 36.69 0 34.38 0 32 C6.6 32 13.2 32 20 32 C20 28.7 20 25.4 20 22 C13.4 22 6.8 22 0 22 C0 14.74 0 7.48 0 0 Z " fill="#E6E6E6" transform="translate(22,16)"/>

<path d="M0 0 C0.99 0 1.98 0 3 0 C3 1.98 3 3.96 3 6 C2.01 6 1.02 6 0 6 C0 4.02 0 2.04 0 0 Z " fill="#00D250" transform="translate(39,6)"/>
<path d="M0 0 C0.99 0 1.98 0 3 0 C3 1.65 3 3.3 3 5 C2.01 5 1.02 5 0 5 C0 3.35 0 1.7 0 0 Z " fill="#00D250" transform="translate(34,8)"/>
</svg>
